<svg xmlns="http://www.w3.org/2000/svg" width="1200" height="700" viewBox="0 0 1200 700"><defs><marker id="arrow" viewBox="0 0 10 10" refX="9" refY="5" markerWidth="7" markerHeight="7" orient="auto-start-reverse"><path d="M 0 0 L 10 5 L 0 10 z" fill="#1A2330"/></marker></defs><rect width="1200" height="700" fill="#FFFFFF"/><path d="M 600.0 110.0 Q 402.0101012677667 152.01010126776666 360.0 349.99999999999994" fill="none" stroke="#1A2330" stroke-width="4" marker-end="url(#arrow)"/><path d="M 360.0 349.99999999999994 Q 402.0101012677667 547.9898987322333 600.0 590.0" fill="none" stroke="#1A2330" stroke-width="4" marker-end="url(#arrow)"/><path d="M 600.0 590.0 Q 797.9898987322333 547.9898987322333 840.0 350.00000000000006" fill="none" stroke="#1A2330" stroke-width="4" marker-end="url(#arrow)"/><path d="M 840.0 350.00000000000006 Q 797.9898987322333 152.01010126776671 600.0 110.0" fill="none" stroke="#1A2330" stroke-width="4" marker-end="url(#arrow)"/><rect x="485.0" y="62.0" width="230" height="96" rx="14" fill="#0E2A47"/><text x="600.0" y="119.1" font-family="IBM Plex Sans Arabic" font-size="26" font-weight="bold" fill="#FFFFFF" text-anchor="middle" direction="rtl">1. الاكتشاف</text><rect x="245.0" y="301.99999999999994" width="230" height="96" rx="14" fill="#2A9D8F"/><text x="360.0" y="342.2" font-family="IBM Plex Sans Arabic" font-size="26" font-weight="bold" fill="#FFFFFF" text-anchor="middle" direction="rtl">2. ترتيب</text><text x="360.0" y="376.0" font-family="IBM Plex Sans Arabic" font-size="26" font-weight="bold" fill="#FFFFFF" text-anchor="middle" direction="rtl">الأولويات</text><rect x="485.0" y="542.0" width="230" height="96" rx="14" fill="#0E2A47"/><text x="600.0" y="599.1" font-family="IBM Plex Sans Arabic" font-size="26" font-weight="bold" fill="#FFFFFF" text-anchor="middle" direction="rtl">3. المعالجة</text><rect x="725.0" y="302.00000000000006" width="230" height="96" rx="14" fill="#2A9D8F"/><text x="840.0" y="359.1000000000001" font-family="IBM Plex Sans Arabic" font-size="26" font-weight="bold" fill="#FFFFFF" text-anchor="middle" direction="rtl">4. التحقق</text><circle cx="600.0" cy="350.0" r="78" fill="#D4A72C"/></svg>