<svg xmlns="http://www.w3.org/2000/svg" width="1200" height="468" viewBox="0 0 1200 468"><defs><marker id="arrow" viewBox="0 0 10 10" refX="9" refY="5" markerWidth="7" markerHeight="7" orient="auto-start-reverse"><path d="M 0 0 L 10 5 L 0 10 z" fill="#1A2330"/></marker></defs><rect width="1200" height="468" fill="#FFFFFF"/><rect x="956.4" y="40" width="213.6" height="388" rx="16" fill="#EEF2F7" stroke="#C9D2DE" stroke-width="2"/><rect x="956.4" y="40" width="213.6" height="78" rx="16" fill="#D4A72C"/><rect x="956.4" y="96" width="213.6" height="22" fill="#D4A72C"/><text x="1063.2" y="88.0" font-family="IBM Plex Sans Arabic" font-size="24" font-weight="bold" fill="#FFFFFF" text-anchor="middle" direction="rtl">حسابات الأساس</text><rect x="968.4" y="150" width="189.6" height="64" rx="10" fill="#FFFFFF" stroke="#C9D2DE" stroke-width="1.5"/><text x="1063.2" y="190.0" font-family="IBM Plex Sans Arabic" font-size="20" font-weight="normal" fill="#1A2330" text-anchor="middle" direction="rtl">الإدارة</text><rect x="968.4" y="226" width="189.6" height="64" rx="10" fill="#FFFFFF" stroke="#C9D2DE" stroke-width="1.5"/><text x="1063.2" y="266.0" font-family="IBM Plex Sans Arabic" font-size="20" font-weight="normal" fill="#1A2330" text-anchor="middle" direction="rtl">التسجيل المحمي</text><rect x="968.4" y="302" width="189.6" height="64" rx="10" fill="#FFFFFF" stroke="#C9D2DE" stroke-width="1.5"/><text x="1063.2" y="342.0" font-family="IBM Plex Sans Arabic" font-size="20" font-weight="normal" fill="#1A2330" text-anchor="middle" direction="rtl">الأمن والأدوات</text><rect x="724.8" y="40" width="213.6" height="388" rx="16" fill="#EEF2F7" stroke="#C9D2DE" stroke-width="2"/><rect x="724.8" y="40" width="213.6" height="78" rx="16" fill="#0E2A47"/><rect x="724.8" y="96" width="213.6" height="22" fill="#0E2A47"/><text x="831.5999999999999" y="88.0" font-family="IBM Plex Sans Arabic" font-size="24" font-weight="bold" fill="#FFFFFF" text-anchor="middle" direction="rtl">الشبكة</text><rect x="736.8" y="150" width="189.6" height="64" rx="10" fill="#FFFFFF" stroke="#C9D2DE" stroke-width="1.5"/><text x="831.5999999999999" y="177.0" font-family="IBM Plex Sans Arabic" font-size="20" font-weight="normal" fill="#1A2330" text-anchor="middle" direction="rtl">محور فيه جدران</text><text x="831.5999999999999" y="203.0" font-family="IBM Plex Sans Arabic" font-size="20" font-weight="normal" fill="#1A2330" text-anchor="middle" direction="rtl">الحماية والفحص</text><rect x="736.8" y="226" width="189.6" height="64" rx="10" fill="#FFFFFF" stroke="#C9D2DE" stroke-width="1.5"/><text x="831.5999999999999" y="266.0" font-family="IBM Plex Sans Arabic" font-size="20" font-weight="normal" fill="#1A2330" text-anchor="middle" direction="rtl">أطراف لكل بيئة</text><rect x="736.8" y="302" width="189.6" height="64" rx="10" fill="#FFFFFF" stroke="#C9D2DE" stroke-width="1.5"/><text x="831.5999999999999" y="329.0" font-family="IBM Plex Sans Arabic" font-size="20" font-weight="normal" fill="#1A2330" text-anchor="middle" direction="rtl">وصلات خاصة مع</text><text x="831.5999999999999" y="355.0" font-family="IBM Plex Sans Arabic" font-size="20" font-weight="normal" fill="#1A2330" text-anchor="middle" direction="rtl">المركز</text><rect x="493.2" y="40" width="213.6" height="388" rx="16" fill="#EEF2F7" stroke="#C9D2DE" stroke-width="2"/><rect x="493.2" y="40" width="213.6" height="78" rx="16" fill="#1F4E79"/><rect x="493.2" y="96" width="213.6" height="22" fill="#1F4E79"/><text x="600.0" y="88.0" font-family="IBM Plex Sans Arabic" font-size="24" font-weight="bold" fill="#FFFFFF" text-anchor="middle" direction="rtl">الهوية</text><rect x="505.2" y="150" width="189.6" height="64" rx="10" fill="#FFFFFF" stroke="#C9D2DE" stroke-width="1.5"/><text x="600.0" y="177.0" font-family="IBM Plex Sans Arabic" font-size="20" font-weight="normal" fill="#1A2330" text-anchor="middle" direction="rtl">اتحاد مع مزود</text><text x="600.0" y="203.0" font-family="IBM Plex Sans Arabic" font-size="20" font-weight="normal" fill="#1A2330" text-anchor="middle" direction="rtl">المؤسسة</text><rect x="505.2" y="226" width="189.6" height="64" rx="10" fill="#FFFFFF" stroke="#C9D2DE" stroke-width="1.5"/><text x="600.0" y="266.0" font-family="IBM Plex Sans Arabic" font-size="20" font-weight="normal" fill="#1A2330" text-anchor="middle" direction="rtl">أدوار بأقل صلاحية</text><rect x="505.2" y="302" width="189.6" height="64" rx="10" fill="#FFFFFF" stroke="#C9D2DE" stroke-width="1.5"/><text x="600.0" y="342.0" font-family="IBM Plex Sans Arabic" font-size="20" font-weight="normal" fill="#1A2330" text-anchor="middle" direction="rtl">لا مفاتيح ثابتة</text><rect x="261.6" y="40" width="213.6" height="388" rx="16" fill="#EEF2F7" stroke="#C9D2DE" stroke-width="2"/><rect x="261.6" y="40" width="213.6" height="78" rx="16" fill="#2A9D8F"/><rect x="261.6" y="96" width="213.6" height="22" fill="#2A9D8F"/><text x="368.40000000000003" y="88.0" font-family="IBM Plex Sans Arabic" font-size="24" font-weight="bold" fill="#FFFFFF" text-anchor="middle" direction="rtl">حواجز الحماية</text><rect x="273.6" y="150" width="189.6" height="64" rx="10" fill="#FFFFFF" stroke="#C9D2DE" stroke-width="1.5"/><text x="368.40000000000003" y="190.0" font-family="IBM Plex Sans Arabic" font-size="20" font-weight="normal" fill="#1A2330" text-anchor="middle" direction="rtl">سياسة كشفرة</text><rect x="273.6" y="226" width="189.6" height="64" rx="10" fill="#FFFFFF" stroke="#C9D2DE" stroke-width="1.5"/><text x="368.40000000000003" y="253.0" font-family="IBM Plex Sans Arabic" font-size="20" font-weight="normal" fill="#1A2330" text-anchor="middle" direction="rtl">منع الموارد</text><text x="368.40000000000003" y="279.0" font-family="IBM Plex Sans Arabic" font-size="20" font-weight="normal" fill="#1A2330" text-anchor="middle" direction="rtl">المخالفة</text><rect x="273.6" y="302" width="189.6" height="64" rx="10" fill="#FFFFFF" stroke="#C9D2DE" stroke-width="1.5"/><text x="368.40000000000003" y="329.0" font-family="IBM Plex Sans Arabic" font-size="20" font-weight="normal" fill="#1A2330" text-anchor="middle" direction="rtl">تشفير وتسجيل</text><text x="368.40000000000003" y="355.0" font-family="IBM Plex Sans Arabic" font-size="20" font-weight="normal" fill="#1A2330" text-anchor="middle" direction="rtl">إلزاميان</text><rect x="30.0" y="40" width="213.6" height="388" rx="16" fill="#EEF2F7" stroke="#C9D2DE" stroke-width="2"/><rect x="30.0" y="40" width="213.6" height="78" rx="16" fill="#5C6B7A"/><rect x="30.0" y="96" width="213.6" height="22" fill="#5C6B7A"/><text x="136.8" y="88.0" font-family="IBM Plex Sans Arabic" font-size="24" font-weight="bold" fill="#FFFFFF" text-anchor="middle" direction="rtl">حسابات الأعمال</text><rect x="42.0" y="150" width="189.6" height="64" rx="10" fill="#FFFFFF" stroke="#C9D2DE" stroke-width="1.5"/><text x="136.8" y="190.0" font-family="IBM Plex Sans Arabic" font-size="20" font-weight="normal" fill="#1A2330" text-anchor="middle" direction="rtl">الإنتاج</text><rect x="42.0" y="226" width="189.6" height="64" rx="10" fill="#FFFFFF" stroke="#C9D2DE" stroke-width="1.5"/><text x="136.8" y="266.0" font-family="IBM Plex Sans Arabic" font-size="20" font-weight="normal" fill="#1A2330" text-anchor="middle" direction="rtl">الاختبار</text><rect x="42.0" y="302" width="189.6" height="64" rx="10" fill="#FFFFFF" stroke="#C9D2DE" stroke-width="1.5"/><text x="136.8" y="342.0" font-family="IBM Plex Sans Arabic" font-size="20" font-weight="normal" fill="#1A2330" text-anchor="middle" direction="rtl">التطوير</text></svg>